<svg xmlns="http://www.w3.org/2000/svg" width="1280" height="720" viewBox="0 0 1280 720">
  <defs>
    <linearGradient id="bg" x1="0" y1="0" x2="0" y2="1">
      <stop offset="0%" stop-color="#060019"/>
      <stop offset="100%" stop-color="#000008"/>
    </linearGradient>
    <filter id="softGlow" x="-30%" y="-30%" width="160%" height="160%">
      <feGaussianBlur stdDeviation="8" result="blur"/>
      <feMerge><feMergeNode in="blur"/><feMergeNode in="SourceGraphic"/></feMerge>
    </filter>
  </defs>
  <rect width="100%" height="100%" fill="url(#bg)"/>
  <g filter="url(#softGlow)"><circle cx="640.00" cy="360.00" r="22.00" fill="#2ab7ff" opacity="0.230"/><circle cx="640.00" cy="360.00" r="44.00" fill="#00e9ff" opacity="0.223"/><circle cx="640.00" cy="360.00" r="66.00" fill="#ff4ca0" opacity="0.216"/><circle cx="640.00" cy="360.00" r="88.00" fill="#ff6cab" opacity="0.209"/><circle cx="640.00" cy="360.00" r="110.00" fill="#2ab7ff" opacity="0.202"/><circle cx="640.00" cy="360.00" r="132.00" fill="#00e9ff" opacity="0.195"/><circle cx="640.00" cy="360.00" r="154.00" fill="#ff4ca0" opacity="0.188"/><circle cx="640.00" cy="360.00" r="176.00" fill="#ff6cab" opacity="0.181"/><circle cx="640.00" cy="360.00" r="198.00" fill="#2ab7ff" opacity="0.174"/><circle cx="640.00" cy="360.00" r="220.00" fill="#00e9ff" opacity="0.167"/><circle cx="640.00" cy="360.00" r="242.00" fill="#ff4ca0" opacity="0.160"/><circle cx="640.00" cy="360.00" r="264.00" fill="#ff6cab" opacity="0.153"/><circle cx="640.00" cy="360.00" r="286.00" fill="#2ab7ff" opacity="0.146"/><circle cx="640.00" cy="360.00" r="308.00" fill="#00e9ff" opacity="0.139"/><circle cx="640.00" cy="360.00" r="330.00" fill="#ff4ca0" opacity="0.132"/><circle cx="640.00" cy="360.00" r="352.00" fill="#ff6cab" opacity="0.125"/><circle cx="640.00" cy="360.00" r="374.00" fill="#2ab7ff" opacity="0.118"/><circle cx="640.00" cy="360.00" r="396.00" fill="#00e9ff" opacity="0.111"/><circle cx="640.00" cy="360.00" r="418.00" fill="#ff4ca0" opacity="0.104"/><circle cx="640.00" cy="360.00" r="440.00" fill="#ff6cab" opacity="0.097"/><circle cx="640.00" cy="360.00" r="462.00" fill="#2ab7ff" opacity="0.090"/><circle cx="640.00" cy="360.00" r="484.00" fill="#00e9ff" opacity="0.083"/><circle cx="640.00" cy="360.00" r="506.00" fill="#ff4ca0" opacity="0.076"/><circle cx="640.00" cy="360.00" r="528.00" fill="#ff6cab" opacity="0.069"/><circle cx="640.00" cy="360.00" r="550.00" fill="#2ab7ff" opacity="0.062"/><circle cx="640.00" cy="360.00" r="572.00" fill="#00e9ff" opacity="0.055"/><circle cx="640.00" cy="360.00" r="594.00" fill="#ff4ca0" opacity="0.048"/><circle cx="640.00" cy="360.00" r="616.00" fill="#ff6cab" opacity="0.041"/><rect x="0" y="357.00" width="1280" height="6" fill="#00e9ff" opacity="0.55"/><rect x="0" y="359.00" width="1280" height="2" fill="#ffffff" opacity="0.35"/><line x1="0.00" x2="0.00" y1="352.00" y2="368.00" stroke="#2ab7ff" stroke-width="1.1" opacity="0.138"/><line x1="8.05" x2="8.05" y1="350.54" y2="369.46" stroke="#2ab7ff" stroke-width="1.1" opacity="0.138"/><line x1="16.10" x2="16.10" y1="349.21" y2="370.79" stroke="#2ab7ff" stroke-width="1.1" opacity="0.138"/><line x1="24.15" x2="24.15" y1="348.15" y2="371.85" stroke="#2ab7ff" stroke-width="1.1" opacity="0.138"/><line x1="32.20" x2="32.20" y1="347.46" y2="372.54" stroke="#2ab7ff" stroke-width="1.1" opacity="0.138"/><line x1="40.25" x2="40.25" y1="347.20" y2="372.80" stroke="#2ab7ff" stroke-width="1.1" opacity="0.138"/><line x1="48.30" x2="48.30" y1="347.40" y2="372.60" stroke="#00e9ff" stroke-width="1.1" opacity="0.138"/><line x1="56.35" x2="56.35" y1="348.04" y2="371.96" stroke="#00e9ff" stroke-width="1.1" opacity="0.138"/><line x1="64.40" x2="64.40" y1="349.05" y2="370.95" stroke="#00e9ff" stroke-width="1.1" opacity="0.138"/><line x1="72.45" x2="72.45" y1="350.35" y2="369.65" stroke="#00e9ff" stroke-width="1.1" opacity="0.138"/><line x1="80.50" x2="80.50" y1="351.80" y2="368.20" stroke="#00e9ff" stroke-width="1.1" opacity="0.138"/><line x1="88.55" x2="88.55" y1="350.73" y2="369.27" stroke="#00e9ff" stroke-width="1.1" opacity="0.138"/><line x1="96.60" x2="96.60" y1="349.38" y2="370.62" stroke="#ff4ca0" stroke-width="1.1" opacity="0.138"/><line x1="104.65" x2="104.65" y1="348.27" y2="371.73" stroke="#ff4ca0" stroke-width="1.1" opacity="0.138"/><line x1="112.70" x2="112.70" y1="347.53" y2="372.47" stroke="#ff4ca0" stroke-width="1.1" opacity="0.138"/><line x1="120.75" x2="120.75" y1="347.21" y2="372.79" stroke="#ff4ca0" stroke-width="1.1" opacity="0.138"/><line x1="128.81" x2="128.81" y1="347.29" y2="372.71" stroke="#ff4ca0" stroke-width="1.1" opacity="0.138"/><line x1="136.86" x2="136.86" y1="347.34" y2="372.66" stroke="#ff4ca0" stroke-width="1.1" opacity="0.141"/><line x1="144.91" x2="144.91" y1="348.02" y2="371.98" stroke="#ff6cab" stroke-width="1.1" opacity="0.143"/><line x1="152.96" x2="152.96" y1="349.37" y2="370.63" stroke="#ff6cab" stroke-width="1.1" opacity="0.146"/><line x1="161.01" x2="161.01" y1="351.37" y2="368.63" stroke="#ff6cab" stroke-width="1.1" opacity="0.148"/><line x1="169.06" x2="169.06" y1="350.12" y2="369.88" stroke="#ff6cab" stroke-width="1.1" opacity="0.151"/><line x1="177.11" x2="177.11" y1="347.30" y2="372.70" stroke="#ff6cab" stroke-width="1.1" opacity="0.154"/><line x1="185.16" x2="185.16" y1="344.48" y2="375.52" stroke="#ff6cab" stroke-width="1.1" opacity="0.158"/><line x1="193.21" x2="193.21" y1="341.99" y2="378.01" stroke="#2ab7ff" stroke-width="1.1" opacity="0.161"/><line x1="201.26" x2="201.26" y1="340.20" y2="379.80" stroke="#2ab7ff" stroke-width="1.1" opacity="0.164"/><line x1="209.31" x2="209.31" y1="339.44" y2="380.56" stroke="#2ab7ff" stroke-width="1.1" opacity="0.168"/><line x1="217.36" x2="217.36" y1="339.96" y2="380.04" stroke="#2ab7ff" stroke-width="1.1" opacity="0.172"/><line x1="225.41" x2="225.41" y1="341.91" y2="378.09" stroke="#2ab7ff" stroke-width="1.1" opacity="0.176"/><line x1="233.46" x2="233.46" y1="345.27" y2="374.73" stroke="#2ab7ff" stroke-width="1.1" opacity="0.180"/><line x1="241.51" x2="241.51" y1="349.87" y2="370.13" stroke="#00e9ff" stroke-width="1.1" opacity="0.184"/><line x1="249.56" x2="249.56" y1="348.64" y2="371.36" stroke="#00e9ff" stroke-width="1.1" opacity="0.188"/><line x1="257.61" x2="257.61" y1="342.76" y2="377.24" stroke="#00e9ff" stroke-width="1.1" opacity="0.193"/><line x1="265.66" x2="265.66" y1="337.09" y2="382.91" stroke="#00e9ff" stroke-width="1.1" opacity="0.198"/><line x1="273.71" x2="273.71" y1="332.29" y2="387.71" stroke="#00e9ff" stroke-width="1.1" opacity="0.202"/><line x1="281.76" x2="281.76" y1="328.99" y2="391.01" stroke="#00e9ff" stroke-width="1.1" opacity="0.207"/><line x1="289.81" x2="289.81" y1="327.73" y2="392.27" stroke="#ff4ca0" stroke-width="1.1" opacity="0.212"/><line x1="297.86" x2="297.86" y1="328.88" y2="391.12" stroke="#ff4ca0" stroke-width="1.1" opacity="0.217"/><line x1="305.91" x2="305.91" y1="332.59" y2="387.41" stroke="#ff4ca0" stroke-width="1.1" opacity="0.223"/><line x1="313.96" x2="313.96" y1="338.76" y2="381.24" stroke="#ff4ca0" stroke-width="1.1" opacity="0.228"/><line x1="322.01" x2="322.01" y1="346.97" y2="373.03" stroke="#ff4ca0" stroke-width="1.1" opacity="0.234"/><line x1="330.06" x2="330.06" y1="347.43" y2="372.57" stroke="#ff4ca0" stroke-width="1.1" opacity="0.240"/><line x1="338.11" x2="338.11" y1="337.32" y2="382.68" stroke="#ff6cab" stroke-width="1.1" opacity="0.246"/><line x1="346.16" x2="346.16" y1="327.72" y2="392.28" stroke="#ff6cab" stroke-width="1.1" opacity="0.252"/><line x1="354.21" x2="354.21" y1="319.69" y2="400.31" stroke="#ff6cab" stroke-width="1.1" opacity="0.258"/><line x1="362.26" x2="362.26" y1="314.22" y2="405.78" stroke="#ff6cab" stroke-width="1.1" opacity="0.264"/><line x1="370.31" x2="370.31" y1="312.13" y2="407.87" stroke="#ff6cab" stroke-width="1.1" opacity="0.271"/><line x1="378.36" x2="378.36" y1="313.93" y2="406.07" stroke="#ff6cab" stroke-width="1.1" opacity="0.277"/><line x1="386.42" x2="386.42" y1="319.78" y2="400.22" stroke="#2ab7ff" stroke-width="1.1" opacity="0.284"/><line x1="394.47" x2="394.47" y1="329.43" y2="390.57" stroke="#2ab7ff" stroke-width="1.1" opacity="0.291"/><line x1="402.52" x2="402.52" y1="342.20" y2="377.80" stroke="#2ab7ff" stroke-width="1.1" opacity="0.298"/><line x1="410.57" x2="410.57" y1="346.97" y2="373.03" stroke="#2ab7ff" stroke-width="1.1" opacity="0.305"/><line x1="418.62" x2="418.62" y1="331.44" y2="388.56" stroke="#2ab7ff" stroke-width="1.1" opacity="0.313"/><line x1="426.67" x2="426.67" y1="316.75" y2="403.25" stroke="#2ab7ff" stroke-width="1.1" opacity="0.320"/><line x1="434.72" x2="434.72" y1="304.48" y2="415.52" stroke="#00e9ff" stroke-width="1.1" opacity="0.328"/><line x1="442.77" x2="442.77" y1="296.06" y2="423.94" stroke="#00e9ff" stroke-width="1.1" opacity="0.335"/><line x1="450.82" x2="450.82" y1="292.65" y2="427.35" stroke="#00e9ff" stroke-width="1.1" opacity="0.343"/><line x1="458.87" x2="458.87" y1="294.97" y2="425.03" stroke="#00e9ff" stroke-width="1.1" opacity="0.351"/><line x1="466.92" x2="466.92" y1="303.20" y2="416.80" stroke="#00e9ff" stroke-width="1.1" opacity="0.360"/><line x1="474.97" x2="474.97" y1="316.92" y2="403.08" stroke="#00e9ff" stroke-width="1.1" opacity="0.368"/><line x1="483.02" x2="483.02" y1="335.12" y2="384.88" stroke="#ff4ca0" stroke-width="1.1" opacity="0.376"/><line x1="491.07" x2="491.07" y1="347.73" y2="372.27" stroke="#ff4ca0" stroke-width="1.1" opacity="0.385"/><line x1="499.12" x2="499.12" y1="325.58" y2="394.42" stroke="#ff4ca0" stroke-width="1.1" opacity="0.394"/><line x1="507.17" x2="507.17" y1="304.59" y2="415.41" stroke="#ff4ca0" stroke-width="1.1" opacity="0.403"/><line x1="515.22" x2="515.22" y1="286.96" y2="433.04" stroke="#ff4ca0" stroke-width="1.1" opacity="0.412"/><line x1="523.27" x2="523.27" y1="274.70" y2="445.30" stroke="#ff4ca0" stroke-width="1.1" opacity="0.421"/><line x1="531.32" x2="531.32" y1="269.36" y2="450.64" stroke="#ff6cab" stroke-width="1.1" opacity="0.430"/><line x1="539.37" x2="539.37" y1="271.93" y2="448.07" stroke="#ff6cab" stroke-width="1.1" opacity="0.440"/><line x1="547.42" x2="547.42" y1="282.62" y2="437.38" stroke="#ff6cab" stroke-width="1.1" opacity="0.449"/><line x1="555.47" x2="555.47" y1="300.87" y2="419.13" stroke="#ff6cab" stroke-width="1.1" opacity="0.459"/><line x1="563.52" x2="563.52" y1="325.29" y2="394.71" stroke="#ff6cab" stroke-width="1.1" opacity="0.469"/><line x1="571.57" x2="571.57" y1="350.20" y2="369.80" stroke="#ff6cab" stroke-width="1.1" opacity="0.479"/><line x1="579.62" x2="579.62" y1="320.21" y2="399.79" stroke="#2ab7ff" stroke-width="1.1" opacity="0.489"/><line x1="587.67" x2="587.67" y1="291.67" y2="428.33" stroke="#2ab7ff" stroke-width="1.1" opacity="0.499"/><line x1="595.72" x2="595.72" y1="267.50" y2="452.50" stroke="#2ab7ff" stroke-width="1.1" opacity="0.510"/><line x1="603.77" x2="603.77" y1="250.35" y2="469.65" stroke="#2ab7ff" stroke-width="1.1" opacity="0.520"/><line x1="611.82" x2="611.82" y1="242.33" y2="477.67" stroke="#2ab7ff" stroke-width="1.1" opacity="0.531"/><line x1="619.87" x2="619.87" y1="244.73" y2="475.27" stroke="#2ab7ff" stroke-width="1.1" opacity="0.542"/><line x1="627.92" x2="627.92" y1="257.85" y2="462.15" stroke="#00e9ff" stroke-width="1.1" opacity="0.553"/><line x1="635.97" x2="635.97" y1="280.97" y2="439.03" stroke="#00e9ff" stroke-width="1.1" opacity="0.564"/><line x1="644.03" x2="644.03" y1="313.30" y2="406.70" stroke="#00e9ff" stroke-width="1.1" opacity="0.564"/><line x1="652.08" x2="652.08" y1="349.37" y2="370.63" stroke="#00e9ff" stroke-width="1.1" opacity="0.553"/><line x1="660.13" x2="660.13" y1="320.11" y2="399.89" stroke="#00e9ff" stroke-width="1.1" opacity="0.542"/><line x1="668.18" x2="668.18" y1="290.33" y2="429.67" stroke="#00e9ff" stroke-width="1.1" opacity="0.531"/><line x1="676.23" x2="676.23" y1="267.86" y2="452.14" stroke="#ff4ca0" stroke-width="1.1" opacity="0.520"/><line x1="684.28" x2="684.28" y1="254.46" y2="465.54" stroke="#ff4ca0" stroke-width="1.1" opacity="0.510"/><line x1="692.33" x2="692.33" y1="250.92" y2="469.08" stroke="#ff4ca0" stroke-width="1.1" opacity="0.499"/><line x1="700.38" x2="700.38" y1="257.05" y2="462.95" stroke="#ff4ca0" stroke-width="1.1" opacity="0.489"/><line x1="708.43" x2="708.43" y1="271.76" y2="448.24" stroke="#ff4ca0" stroke-width="1.1" opacity="0.479"/><line x1="716.48" x2="716.48" y1="293.19" y2="426.81" stroke="#ff4ca0" stroke-width="1.1" opacity="0.469"/><line x1="724.53" x2="724.53" y1="318.95" y2="401.05" stroke="#ff6cab" stroke-width="1.1" opacity="0.459"/><line x1="732.58" x2="732.58" y1="346.36" y2="373.64" stroke="#ff6cab" stroke-width="1.1" opacity="0.449"/><line x1="740.63" x2="740.63" y1="331.27" y2="388.73" stroke="#ff6cab" stroke-width="1.1" opacity="0.440"/><line x1="748.68" x2="748.68" y1="308.37" y2="411.63" stroke="#ff6cab" stroke-width="1.1" opacity="0.430"/><line x1="756.73" x2="756.73" y1="290.91" y2="429.09" stroke="#ff6cab" stroke-width="1.1" opacity="0.421"/><line x1="764.78" x2="764.78" y1="280.22" y2="439.78" stroke="#ff6cab" stroke-width="1.1" opacity="0.412"/><line x1="772.83" x2="772.83" y1="276.92" y2="443.08" stroke="#2ab7ff" stroke-width="1.1" opacity="0.403"/><line x1="780.88" x2="780.88" y1="280.85" y2="439.15" stroke="#2ab7ff" stroke-width="1.1" opacity="0.394"/><line x1="788.93" x2="788.93" y1="291.22" y2="428.78" stroke="#2ab7ff" stroke-width="1.1" opacity="0.385"/><line x1="796.98" x2="796.98" y1="306.63" y2="413.37" stroke="#2ab7ff" stroke-width="1.1" opacity="0.376"/><line x1="805.03" x2="805.03" y1="325.30" y2="394.70" stroke="#2ab7ff" stroke-width="1.1" opacity="0.368"/><line x1="813.08" x2="813.08" y1="345.25" y2="374.75" stroke="#2ab7ff" stroke-width="1.1" opacity="0.360"/><line x1="821.13" x2="821.13" y1="339.50" y2="380.50" stroke="#00e9ff" stroke-width="1.1" opacity="0.351"/><line x1="829.18" x2="829.18" y1="322.72" y2="397.28" stroke="#00e9ff" stroke-width="1.1" opacity="0.343"/><line x1="837.23" x2="837.23" y1="309.85" y2="410.15" stroke="#00e9ff" stroke-width="1.1" opacity="0.335"/><line x1="845.28" x2="845.28" y1="301.83" y2="418.17" stroke="#00e9ff" stroke-width="1.1" opacity="0.328"/><line x1="853.33" x2="853.33" y1="299.09" y2="420.91" stroke="#00e9ff" stroke-width="1.1" opacity="0.320"/><line x1="861.38" x2="861.38" y1="301.52" y2="418.48" stroke="#00e9ff" stroke-width="1.1" opacity="0.313"/><line x1="869.43" x2="869.43" y1="308.50" y2="411.50" stroke="#ff4ca0" stroke-width="1.1" opacity="0.305"/><line x1="877.48" x2="877.48" y1="319.04" y2="400.96" stroke="#ff4ca0" stroke-width="1.1" opacity="0.298"/><line x1="885.53" x2="885.53" y1="331.86" y2="388.14" stroke="#ff4ca0" stroke-width="1.1" opacity="0.291"/><line x1="893.58" x2="893.58" y1="345.57" y2="374.43" stroke="#ff4ca0" stroke-width="1.1" opacity="0.284"/><line x1="901.64" x2="901.64" y1="345.22" y2="374.78" stroke="#ff4ca0" stroke-width="1.1" opacity="0.277"/><line x1="909.69" x2="909.69" y1="333.72" y2="386.28" stroke="#ff4ca0" stroke-width="1.1" opacity="0.271"/><line x1="917.74" x2="917.74" y1="324.89" y2="395.11" stroke="#ff6cab" stroke-width="1.1" opacity="0.264"/><line x1="925.79" x2="925.79" y1="319.37" y2="400.63" stroke="#ff6cab" stroke-width="1.1" opacity="0.258"/><line x1="933.84" x2="933.84" y1="317.39" y2="402.61" stroke="#ff6cab" stroke-width="1.1" opacity="0.252"/><line x1="941.89" x2="941.89" y1="318.84" y2="401.16" stroke="#ff6cab" stroke-width="1.1" opacity="0.246"/><line x1="949.94" x2="949.94" y1="323.28" y2="396.72" stroke="#ff6cab" stroke-width="1.1" opacity="0.240"/><line x1="957.99" x2="957.99" y1="330.02" y2="389.98" stroke="#ff6cab" stroke-width="1.1" opacity="0.234"/><line x1="966.04" x2="966.04" y1="338.18" y2="381.82" stroke="#2ab7ff" stroke-width="1.1" opacity="0.228"/><line x1="974.09" x2="974.09" y1="346.85" y2="373.15" stroke="#2ab7ff" stroke-width="1.1" opacity="0.223"/><line x1="982.14" x2="982.14" y1="348.87" y2="371.13" stroke="#2ab7ff" stroke-width="1.1" opacity="0.217"/><line x1="990.19" x2="990.19" y1="341.72" y2="378.28" stroke="#2ab7ff" stroke-width="1.1" opacity="0.212"/><line x1="998.24" x2="998.24" y1="336.30" y2="383.70" stroke="#2ab7ff" stroke-width="1.1" opacity="0.207"/><line x1="1006.29" x2="1006.29" y1="332.95" y2="387.05" stroke="#2ab7ff" stroke-width="1.1" opacity="0.202"/><line x1="1014.34" x2="1014.34" y1="331.78" y2="388.22" stroke="#00e9ff" stroke-width="1.1" opacity="0.198"/><line x1="1022.39" x2="1022.39" y1="332.66" y2="387.34" stroke="#00e9ff" stroke-width="1.1" opacity="0.193"/><line x1="1030.44" x2="1030.44" y1="335.27" y2="384.73" stroke="#00e9ff" stroke-width="1.1" opacity="0.188"/><line x1="1038.49" x2="1038.49" y1="339.15" y2="380.85" stroke="#00e9ff" stroke-width="1.1" opacity="0.184"/><line x1="1046.54" x2="1046.54" y1="343.78" y2="376.22" stroke="#00e9ff" stroke-width="1.1" opacity="0.180"/><line x1="1054.59" x2="1054.59" y1="348.60" y2="371.40" stroke="#00e9ff" stroke-width="1.1" opacity="0.176"/><line x1="1062.64" x2="1062.64" y1="350.90" y2="369.10" stroke="#ff4ca0" stroke-width="1.1" opacity="0.172"/><line x1="1070.69" x2="1070.69" y1="347.13" y2="372.87" stroke="#ff4ca0" stroke-width="1.1" opacity="0.168"/><line x1="1078.74" x2="1078.74" y1="344.36" y2="375.64" stroke="#ff4ca0" stroke-width="1.1" opacity="0.164"/><line x1="1086.79" x2="1086.79" y1="342.74" y2="377.26" stroke="#ff4ca0" stroke-width="1.1" opacity="0.161"/><line x1="1094.84" x2="1094.84" y1="342.27" y2="377.73" stroke="#ff4ca0" stroke-width="1.1" opacity="0.158"/><line x1="1102.89" x2="1102.89" y1="342.83" y2="377.17" stroke="#ff4ca0" stroke-width="1.1" opacity="0.154"/><line x1="1110.94" x2="1110.94" y1="344.19" y2="375.81" stroke="#ff6cab" stroke-width="1.1" opacity="0.151"/><line x1="1118.99" x2="1118.99" y1="346.09" y2="373.91" stroke="#ff6cab" stroke-width="1.1" opacity="0.148"/><line x1="1127.04" x2="1127.04" y1="348.23" y2="371.77" stroke="#ff6cab" stroke-width="1.1" opacity="0.146"/><line x1="1135.09" x2="1135.09" y1="350.35" y2="369.65" stroke="#ff6cab" stroke-width="1.1" opacity="0.143"/><line x1="1143.14" x2="1143.14" y1="351.79" y2="368.21" stroke="#ff6cab" stroke-width="1.1" opacity="0.141"/><line x1="1151.19" x2="1151.19" y1="350.34" y2="369.66" stroke="#ff6cab" stroke-width="1.1" opacity="0.138"/><line x1="1159.25" x2="1159.25" y1="349.07" y2="370.93" stroke="#2ab7ff" stroke-width="1.1" opacity="0.138"/><line x1="1167.30" x2="1167.30" y1="348.05" y2="371.95" stroke="#2ab7ff" stroke-width="1.1" opacity="0.138"/><line x1="1175.35" x2="1175.35" y1="347.40" y2="372.60" stroke="#2ab7ff" stroke-width="1.1" opacity="0.138"/><line x1="1183.40" x2="1183.40" y1="347.20" y2="372.80" stroke="#2ab7ff" stroke-width="1.1" opacity="0.138"/><line x1="1191.45" x2="1191.45" y1="347.45" y2="372.55" stroke="#2ab7ff" stroke-width="1.1" opacity="0.138"/><line x1="1199.50" x2="1199.50" y1="348.14" y2="371.86" stroke="#2ab7ff" stroke-width="1.1" opacity="0.138"/><line x1="1207.55" x2="1207.55" y1="349.20" y2="370.80" stroke="#00e9ff" stroke-width="1.1" opacity="0.138"/><line x1="1215.60" x2="1215.60" y1="350.52" y2="369.48" stroke="#00e9ff" stroke-width="1.1" opacity="0.138"/><line x1="1223.65" x2="1223.65" y1="351.98" y2="368.02" stroke="#00e9ff" stroke-width="1.1" opacity="0.138"/><line x1="1231.70" x2="1231.70" y1="350.55" y2="369.45" stroke="#00e9ff" stroke-width="1.1" opacity="0.138"/><line x1="1239.75" x2="1239.75" y1="349.23" y2="370.77" stroke="#00e9ff" stroke-width="1.1" opacity="0.138"/><line x1="1247.80" x2="1247.80" y1="348.16" y2="371.84" stroke="#00e9ff" stroke-width="1.1" opacity="0.138"/><line x1="1255.85" x2="1255.85" y1="347.47" y2="372.53" stroke="#ff4ca0" stroke-width="1.1" opacity="0.138"/><line x1="1263.90" x2="1263.90" y1="347.20" y2="372.80" stroke="#ff4ca0" stroke-width="1.1" opacity="0.138"/><line x1="1271.95" x2="1271.95" y1="347.39" y2="372.61" stroke="#ff4ca0" stroke-width="1.1" opacity="0.138"/><line x1="1280.00" x2="1280.00" y1="348.03" y2="371.97" stroke="#ff4ca0" stroke-width="1.1" opacity="0.138"/><circle cx="458.53" cy="719.50" r="0.78" fill="#ff4ca0" opacity="0.114"/><circle cx="184.68" cy="404.00" r="1.61" fill="#ff6cab" opacity="0.135"/><circle cx="150.07" cy="609.11" r="1.79" fill="#ff4ca0" opacity="0.373"/><circle cx="915.93" cy="156.27" r="0.57" fill="#ff4ca0" opacity="0.081"/><circle cx="675.81" cy="444.37" r="1.33" fill="#2ab7ff" opacity="0.205"/><circle cx="999.96" cy="528.11" r="0.53" fill="#2ab7ff" opacity="0.395"/><circle cx="850.32" cy="204.19" r="0.64" fill="#00e9ff" opacity="0.338"/><circle cx="1195.00" cy="170.36" r="1.71" fill="#ff4ca0" opacity="0.217"/><circle cx="1249.84" cy="37.78" r="1.46" fill="#ff6cab" opacity="0.184"/><circle cx="392.54" cy="387.60" r="1.62" fill="#ff4ca0" opacity="0.110"/><circle cx="1211.10" cy="576.34" r="1.27" fill="#ff6cab" opacity="0.201"/><circle cx="1188.99" cy="228.31" r="1.24" fill="#ff6cab" opacity="0.233"/><circle cx="265.91" cy="274.94" r="0.54" fill="#ff4ca0" opacity="0.272"/><circle cx="767.79" cy="139.68" r="0.85" fill="#2ab7ff" opacity="0.336"/><circle cx="632.31" cy="339.86" r="0.62" fill="#ff4ca0" opacity="0.079"/><circle cx="55.30" cy="470.78" r="0.59" fill="#ff4ca0" opacity="0.302"/><circle cx="749.48" cy="443.12" r="1.12" fill="#ff4ca0" opacity="0.290"/><circle cx="1068.44" cy="710.58" r="1.01" fill="#ff6cab" opacity="0.351"/><circle cx="137.49" cy="522.79" r="1.66" fill="#ff6cab" opacity="0.320"/><circle cx="1099.94" cy="628.60" r="1.23" fill="#2ab7ff" opacity="0.093"/><circle cx="311.49" cy="294.04" r="1.78" fill="#2ab7ff" opacity="0.076"/><circle cx="865.15" cy="592.27" r="1.72" fill="#ff6cab" opacity="0.367"/><circle cx="589.30" cy="12.92" r="0.81" fill="#ff4ca0" opacity="0.125"/><circle cx="1267.09" cy="581.38" r="1.57" fill="#ff6cab" opacity="0.319"/><circle cx="303.34" cy="336.80" r="1.09" fill="#00e9ff" opacity="0.192"/><circle cx="450.17" cy="87.53" r="1.40" fill="#00e9ff" opacity="0.342"/><circle cx="458.29" cy="393.10" r="1.06" fill="#ff6cab" opacity="0.392"/><circle cx="238.89" cy="491.76" r="0.81" fill="#2ab7ff" opacity="0.243"/><circle cx="638.74" cy="81.30" r="0.73" fill="#ff6cab" opacity="0.155"/><circle cx="1028.44" cy="279.78" r="1.73" fill="#ff6cab" opacity="0.326"/><circle cx="962.99" cy="23.16" r="1.60" fill="#ff6cab" opacity="0.137"/><circle cx="30.39" cy="610.33" r="0.73" fill="#ff6cab" opacity="0.185"/><circle cx="737.48" cy="72.20" r="0.78" fill="#ff6cab" opacity="0.333"/><circle cx="1162.39" cy="35.94" r="1.34" fill="#ff4ca0" opacity="0.125"/><circle cx="519.83" cy="62.18" r="0.59" fill="#2ab7ff" opacity="0.074"/><circle cx="583.22" cy="36.72" r="1.35" fill="#00e9ff" opacity="0.325"/><circle cx="1235.77" cy="586.38" r="1.20" fill="#2ab7ff" opacity="0.380"/><circle cx="157.05" cy="506.65" r="1.78" fill="#00e9ff" opacity="0.142"/><circle cx="208.45" cy="422.69" r="0.97" fill="#2ab7ff" opacity="0.342"/><circle cx="152.78" cy="701.41" r="1.45" fill="#2ab7ff" opacity="0.209"/><circle cx="317.53" cy="330.75" r="0.58" fill="#ff6cab" opacity="0.343"/><circle cx="48.03" cy="207.91" r="0.76" fill="#2ab7ff" opacity="0.244"/><circle cx="369.40" cy="170.61" r="1.48" fill="#2ab7ff" opacity="0.386"/><circle cx="129.53" cy="468.14" r="1.47" fill="#00e9ff" opacity="0.295"/><circle cx="309.92" cy="225.42" r="0.92" fill="#ff4ca0" opacity="0.067"/><circle cx="1080.89" cy="86.74" r="1.64" fill="#00e9ff" opacity="0.068"/><circle cx="503.23" cy="57.83" r="1.71" fill="#ff4ca0" opacity="0.161"/><circle cx="123.03" cy="577.31" r="1.14" fill="#ff6cab" opacity="0.232"/><circle cx="899.17" cy="196.73" r="0.59" fill="#00e9ff" opacity="0.188"/><circle cx="239.82" cy="692.00" r="0.59" fill="#ff4ca0" opacity="0.215"/><circle cx="496.54" cy="266.26" r="0.87" fill="#ff4ca0" opacity="0.330"/><circle cx="160.44" cy="424.87" r="1.53" fill="#00e9ff" opacity="0.149"/><circle cx="82.08" cy="605.81" r="1.12" fill="#ff4ca0" opacity="0.231"/><circle cx="175.51" cy="453.67" r="0.93" fill="#2ab7ff" opacity="0.299"/><circle cx="29.18" cy="433.84" r="0.97" fill="#00e9ff" opacity="0.226"/><circle cx="513.55" cy="18.43" r="0.72" fill="#ff4ca0" opacity="0.249"/><circle cx="1150.27" cy="497.56" r="1.40" fill="#ff6cab" opacity="0.302"/><circle cx="444.66" cy="301.75" r="1.38" fill="#00e9ff" opacity="0.272"/><circle cx="151.69" cy="401.16" r="1.51" fill="#2ab7ff" opacity="0.102"/><circle cx="182.20" cy="351.37" r="1.32" fill="#ff4ca0" opacity="0.400"/><circle cx="498.13" cy="216.32" r="1.40" fill="#2ab7ff" opacity="0.202"/><circle cx="169.15" cy="702.66" r="1.41" fill="#2ab7ff" opacity="0.065"/><circle cx="216.42" cy="709.81" r="1.38" fill="#ff4ca0" opacity="0.242"/><circle cx="178.09" cy="474.48" r="1.06" fill="#ff4ca0" opacity="0.221"/><circle cx="1240.79" cy="604.99" r="1.62" fill="#2ab7ff" opacity="0.099"/><circle cx="540.51" cy="366.92" r="0.57" fill="#00e9ff" opacity="0.360"/><circle cx="965.95" cy="513.39" r="1.48" fill="#2ab7ff" opacity="0.127"/><circle cx="249.01" cy="189.59" r="1.39" fill="#ff6cab" opacity="0.162"/><circle cx="430.18" cy="43.36" r="1.57" fill="#00e9ff" opacity="0.230"/><circle cx="304.67" cy="456.98" r="1.56" fill="#00e9ff" opacity="0.209"/><circle cx="354.34" cy="387.42" r="1.55" fill="#ff4ca0" opacity="0.341"/><circle cx="779.03" cy="642.26" r="1.31" fill="#2ab7ff" opacity="0.093"/><circle cx="366.56" cy="89.15" r="1.06" fill="#00e9ff" opacity="0.191"/><circle cx="1136.57" cy="236.99" r="1.46" fill="#ff6cab" opacity="0.211"/><circle cx="1077.99" cy="464.00" r="0.81" fill="#ff4ca0" opacity="0.209"/><circle cx="628.71" cy="367.37" r="1.67" fill="#ff6cab" opacity="0.245"/><circle cx="1229.79" cy="380.15" r="1.43" fill="#ff6cab" opacity="0.069"/><circle cx="1202.34" cy="600.41" r="1.05" fill="#00e9ff" opacity="0.337"/><circle cx="271.13" cy="5.03" r="0.59" fill="#00e9ff" opacity="0.085"/><circle cx="601.76" cy="124.94" r="0.84" fill="#00e9ff" opacity="0.372"/><circle cx="263.11" cy="492.70" r="1.32" fill="#ff6cab" opacity="0.065"/><circle cx="383.70" cy="426.62" r="1.66" fill="#ff6cab" opacity="0.355"/><circle cx="694.21" cy="294.17" r="1.21" fill="#ff6cab" opacity="0.136"/><circle cx="101.32" cy="201.74" r="1.67" fill="#2ab7ff" opacity="0.357"/><circle cx="129.84" cy="316.04" r="0.87" fill="#ff6cab" opacity="0.203"/><circle cx="395.26" cy="517.39" r="1.28" fill="#00e9ff" opacity="0.082"/><circle cx="106.25" cy="663.03" r="1.61" fill="#2ab7ff" opacity="0.316"/><circle cx="1257.02" cy="710.93" r="1.42" fill="#ff4ca0" opacity="0.356"/><circle cx="1266.86" cy="373.14" r="0.57" fill="#2ab7ff" opacity="0.220"/><circle cx="455.60" cy="494.66" r="0.91" fill="#2ab7ff" opacity="0.258"/><circle cx="355.21" cy="47.81" r="0.74" fill="#2ab7ff" opacity="0.288"/><circle cx="1011.95" cy="586.99" r="1.38" fill="#ff6cab" opacity="0.332"/><circle cx="747.91" cy="296.76" r="1.39" fill="#ff4ca0" opacity="0.274"/><circle cx="213.35" cy="258.53" r="1.56" fill="#ff6cab" opacity="0.089"/><circle cx="985.64" cy="519.24" r="1.61" fill="#00e9ff" opacity="0.335"/><circle cx="230.75" cy="142.48" r="1.71" fill="#ff4ca0" opacity="0.376"/><circle cx="712.81" cy="621.31" r="0.97" fill="#ff6cab" opacity="0.076"/><circle cx="1152.89" cy="459.72" r="1.77" fill="#ff4ca0" opacity="0.155"/><circle cx="232.59" cy="228.10" r="1.05" fill="#ff6cab" opacity="0.178"/><circle cx="856.69" cy="151.83" r="0.92" fill="#ff6cab" opacity="0.149"/><circle cx="147.70" cy="344.96" r="1.56" fill="#ff6cab" opacity="0.263"/><circle cx="672.19" cy="71.80" r="0.58" fill="#ff4ca0" opacity="0.109"/><circle cx="303.94" cy="366.85" r="0.99" fill="#ff6cab" opacity="0.172"/><circle cx="894.59" cy="169.65" r="1.34" fill="#ff4ca0" opacity="0.067"/><circle cx="866.94" cy="16.14" r="0.64" fill="#00e9ff" opacity="0.161"/><circle cx="1217.68" cy="505.63" r="1.44" fill="#00e9ff" opacity="0.273"/><circle cx="1272.14" cy="115.31" r="1.04" fill="#ff6cab" opacity="0.186"/><circle cx="964.70" cy="489.48" r="1.47" fill="#00e9ff" opacity="0.297"/><circle cx="366.21" cy="133.84" r="1.50" fill="#ff4ca0" opacity="0.186"/><circle cx="444.52" cy="104.87" r="0.81" fill="#ff6cab" opacity="0.348"/><circle cx="435.93" cy="349.22" r="1.47" fill="#ff6cab" opacity="0.218"/><circle cx="826.98" cy="276.52" r="1.41" fill="#2ab7ff" opacity="0.096"/><circle cx="954.38" cy="690.14" r="1.03" fill="#ff6cab" opacity="0.106"/><circle cx="150.17" cy="377.27" r="1.21" fill="#ff4ca0" opacity="0.365"/><circle cx="476.99" cy="286.57" r="0.55" fill="#ff4ca0" opacity="0.151"/><circle cx="309.78" cy="325.22" r="0.96" fill="#ff6cab" opacity="0.271"/><circle cx="1102.15" cy="155.09" r="1.12" fill="#ff6cab" opacity="0.229"/><circle cx="346.71" cy="514.07" r="1.47" fill="#00e9ff" opacity="0.318"/><circle cx="761.13" cy="209.78" r="1.08" fill="#ff6cab" opacity="0.306"/><circle cx="621.17" cy="447.14" r="1.45" fill="#00e9ff" opacity="0.140"/><circle cx="1227.80" cy="553.75" r="1.19" fill="#ff6cab" opacity="0.363"/><circle cx="814.42" cy="294.81" r="1.46" fill="#ff6cab" opacity="0.376"/><circle cx="312.86" cy="105.52" r="1.19" fill="#00e9ff" opacity="0.120"/><circle cx="22.69" cy="143.88" r="0.58" fill="#00e9ff" opacity="0.083"/><circle cx="1213.64" cy="573.79" r="1.69" fill="#ff6cab" opacity="0.251"/><circle cx="1252.82" cy="105.87" r="0.87" fill="#00e9ff" opacity="0.090"/><circle cx="173.18" cy="439.54" r="1.07" fill="#ff6cab" opacity="0.151"/><circle cx="139.62" cy="486.47" r="1.46" fill="#ff6cab" opacity="0.314"/><circle cx="431.63" cy="414.38" r="1.06" fill="#ff6cab" opacity="0.146"/><circle cx="889.88" cy="220.02" r="1.63" fill="#ff4ca0" opacity="0.335"/><circle cx="938.55" cy="535.65" r="1.33" fill="#2ab7ff" opacity="0.214"/><circle cx="164.33" cy="352.70" r="0.83" fill="#00e9ff" opacity="0.172"/><circle cx="244.21" cy="110.56" r="1.13" fill="#2ab7ff" opacity="0.360"/><circle cx="363.76" cy="98.11" r="1.07" fill="#ff4ca0" opacity="0.277"/><circle cx="503.97" cy="409.99" r="1.63" fill="#2ab7ff" opacity="0.248"/><circle cx="800.82" cy="319.36" r="0.81" fill="#00e9ff" opacity="0.230"/><circle cx="21.74" cy="239.81" r="0.90" fill="#00e9ff" opacity="0.373"/><circle cx="89.44" cy="334.57" r="0.82" fill="#ff4ca0" opacity="0.273"/><circle cx="1199.70" cy="719.29" r="1.35" fill="#2ab7ff" opacity="0.164"/><circle cx="106.28" cy="119.20" r="0.77" fill="#ff4ca0" opacity="0.331"/><circle cx="915.87" cy="552.33" r="1.74" fill="#ff6cab" opacity="0.127"/><circle cx="43.65" cy="116.04" r="1.03" fill="#ff4ca0" opacity="0.389"/><circle cx="249.38" cy="517.94" r="1.61" fill="#ff6cab" opacity="0.199"/><circle cx="317.68" cy="209.74" r="0.59" fill="#ff6cab" opacity="0.386"/><circle cx="1240.53" cy="181.13" r="1.33" fill="#ff4ca0" opacity="0.121"/><circle cx="1217.84" cy="55.44" r="0.87" fill="#ff4ca0" opacity="0.127"/><circle cx="503.12" cy="496.02" r="1.31" fill="#00e9ff" opacity="0.384"/><circle cx="280.53" cy="98.58" r="0.75" fill="#00e9ff" opacity="0.176"/><circle cx="222.39" cy="654.86" r="1.14" fill="#2ab7ff" opacity="0.091"/><circle cx="382.27" cy="63.17" r="0.96" fill="#2ab7ff" opacity="0.210"/><circle cx="136.67" cy="596.01" r="1.69" fill="#ff6cab" opacity="0.290"/><circle cx="416.50" cy="668.12" r="1.19" fill="#2ab7ff" opacity="0.352"/><circle cx="209.55" cy="693.11" r="1.32" fill="#2ab7ff" opacity="0.333"/><circle cx="101.68" cy="109.80" r="1.51" fill="#ff6cab" opacity="0.145"/><circle cx="346.18" cy="475.58" r="1.59" fill="#00e9ff" opacity="0.199"/><circle cx="1122.62" cy="51.66" r="1.51" fill="#2ab7ff" opacity="0.344"/><circle cx="110.68" cy="554.09" r="0.94" fill="#2ab7ff" opacity="0.264"/><circle cx="1092.57" cy="190.93" r="1.55" fill="#ff6cab" opacity="0.064"/><circle cx="1118.02" cy="383.35" r="1.05" fill="#ff6cab" opacity="0.399"/><circle cx="354.70" cy="408.51" r="0.94" fill="#00e9ff" opacity="0.217"/><circle cx="297.31" cy="683.51" r="0.65" fill="#ff4ca0" opacity="0.195"/><circle cx="9.49" cy="484.66" r="1.45" fill="#ff6cab" opacity="0.192"/><circle cx="1238.02" cy="671.84" r="1.29" fill="#ff4ca0" opacity="0.065"/><circle cx="1087.32" cy="92.42" r="1.04" fill="#ff4ca0" opacity="0.390"/><circle cx="126.16" cy="448.39" r="1.66" fill="#2ab7ff" opacity="0.133"/><circle cx="374.58" cy="218.17" r="0.91" fill="#2ab7ff" opacity="0.154"/><circle cx="652.00" cy="465.71" r="1.42" fill="#ff6cab" opacity="0.199"/><circle cx="1200.24" cy="178.55" r="1.05" fill="#2ab7ff" opacity="0.316"/><circle cx="116.42" cy="617.77" r="1.23" fill="#ff6cab" opacity="0.236"/><circle cx="856.47" cy="684.46" r="1.14" fill="#2ab7ff" opacity="0.194"/><circle cx="247.49" cy="412.63" r="1.17" fill="#00e9ff" opacity="0.378"/><circle cx="1040.36" cy="1.60" r="1.75" fill="#ff6cab" opacity="0.086"/><circle cx="683.04" cy="565.71" r="0.77" fill="#ff4ca0" opacity="0.259"/><circle cx="1039.20" cy="540.24" r="1.31" fill="#2ab7ff" opacity="0.290"/><circle cx="1263.02" cy="635.87" r="0.93" fill="#ff6cab" opacity="0.163"/><circle cx="654.01" cy="538.85" r="1.78" fill="#ff4ca0" opacity="0.088"/><circle cx="313.91" cy="263.95" r="1.25" fill="#ff6cab" opacity="0.336"/><circle cx="434.01" cy="165.69" r="0.95" fill="#2ab7ff" opacity="0.394"/><circle cx="691.88" cy="65.99" r="1.79" fill="#00e9ff" opacity="0.389"/><circle cx="148.20" cy="369.43" r="0.64" fill="#2ab7ff" opacity="0.143"/><circle cx="619.35" cy="29.00" r="0.52" fill="#ff6cab" opacity="0.237"/><circle cx="837.98" cy="240.38" r="0.54" fill="#2ab7ff" opacity="0.238"/><circle cx="206.20" cy="633.64" r="1.45" fill="#ff6cab" opacity="0.119"/><circle cx="881.60" cy="714.38" r="1.37" fill="#2ab7ff" opacity="0.116"/><circle cx="1108.71" cy="325.61" r="0.54" fill="#00e9ff" opacity="0.249"/><circle cx="839.59" cy="477.78" r="1.53" fill="#ff6cab" opacity="0.213"/><circle cx="828.18" cy="30.88" r="0.94" fill="#ff4ca0" opacity="0.105"/><circle cx="1267.04" cy="449.50" r="1.74" fill="#00e9ff" opacity="0.128"/><circle cx="1222.64" cy="499.25" r="0.98" fill="#2ab7ff" opacity="0.370"/><circle cx="605.49" cy="19.00" r="1.28" fill="#ff4ca0" opacity="0.085"/><circle cx="142.92" cy="656.15" r="0.58" fill="#00e9ff" opacity="0.089"/><circle cx="174.11" cy="204.08" r="1.75" fill="#ff4ca0" opacity="0.314"/><circle cx="286.33" cy="378.01" r="1.27" fill="#2ab7ff" opacity="0.310"/><circle cx="1080.11" cy="468.19" r="0.51" fill="#00e9ff" opacity="0.269"/><circle cx="668.79" cy="195.59" r="0.74" fill="#ff6cab" opacity="0.080"/><circle cx="613.45" cy="384.83" r="1.00" fill="#00e9ff" opacity="0.099"/><circle cx="72.09" cy="579.06" r="1.26" fill="#ff6cab" opacity="0.203"/><circle cx="331.73" cy="169.40" r="1.23" fill="#ff6cab" opacity="0.065"/><circle cx="395.60" cy="335.90" r="1.53" fill="#00e9ff" opacity="0.156"/><circle cx="993.26" cy="485.85" r="0.83" fill="#2ab7ff" opacity="0.147"/><circle cx="97.60" cy="599.20" r="0.90" fill="#ff6cab" opacity="0.335"/><circle cx="600.17" cy="499.04" r="1.17" fill="#2ab7ff" opacity="0.352"/><circle cx="1011.01" cy="58.38" r="0.65" fill="#2ab7ff" opacity="0.386"/><circle cx="704.18" cy="413.09" r="1.48" fill="#00e9ff" opacity="0.159"/><circle cx="1002.81" cy="271.47" r="1.72" fill="#ff4ca0" opacity="0.064"/><circle cx="249.61" cy="234.52" r="0.57" fill="#ff4ca0" opacity="0.265"/><circle cx="471.89" cy="598.04" r="1.43" fill="#00e9ff" opacity="0.248"/><circle cx="135.08" cy="81.23" r="0.70" fill="#ff6cab" opacity="0.361"/><circle cx="248.89" cy="402.19" r="1.61" fill="#ff4ca0" opacity="0.088"/><circle cx="187.96" cy="342.26" r="1.48" fill="#ff4ca0" opacity="0.136"/><circle cx="391.22" cy="715.89" r="1.64" fill="#00e9ff" opacity="0.083"/><circle cx="160.77" cy="541.15" r="1.04" fill="#ff6cab" opacity="0.220"/><circle cx="234.56" cy="276.04" r="1.49" fill="#00e9ff" opacity="0.218"/><circle cx="569.63" cy="33.16" r="0.95" fill="#ff4ca0" opacity="0.356"/><circle cx="736.08" cy="406.34" r="1.35" fill="#00e9ff" opacity="0.120"/><circle cx="699.16" cy="611.32" r="1.44" fill="#2ab7ff" opacity="0.155"/><circle cx="596.42" cy="345.16" r="1.79" fill="#ff6cab" opacity="0.341"/><circle cx="669.51" cy="642.11" r="1.06" fill="#2ab7ff" opacity="0.212"/><circle cx="597.72" cy="700.09" r="1.21" fill="#2ab7ff" opacity="0.088"/><circle cx="1019.40" cy="44.39" r="0.81" fill="#2ab7ff" opacity="0.108"/><circle cx="962.50" cy="183.24" r="0.99" fill="#ff4ca0" opacity="0.124"/><circle cx="107.34" cy="647.65" r="1.49" fill="#2ab7ff" opacity="0.178"/><circle cx="304.00" cy="191.26" r="0.89" fill="#ff4ca0" opacity="0.238"/><circle cx="454.69" cy="28.13" r="0.51" fill="#ff4ca0" opacity="0.331"/><circle cx="499.18" cy="491.63" r="1.74" fill="#ff6cab" opacity="0.148"/><circle cx="273.29" cy="102.63" r="1.73" fill="#2ab7ff" opacity="0.258"/><circle cx="1232.51" cy="129.74" r="1.45" fill="#00e9ff" opacity="0.346"/><circle cx="633.02" cy="620.36" r="1.03" fill="#2ab7ff" opacity="0.126"/><circle cx="1166.13" cy="69.95" r="1.68" fill="#ff4ca0" opacity="0.173"/><circle cx="309.99" cy="374.66" r="0.70" fill="#ff4ca0" opacity="0.304"/><circle cx="244.87" cy="578.84" r="0.98" fill="#ff6cab" opacity="0.237"/><circle cx="191.30" cy="319.10" r="1.66" fill="#ff6cab" opacity="0.385"/><circle cx="1069.08" cy="155.20" r="1.18" fill="#ff4ca0" opacity="0.159"/><circle cx="1178.70" cy="624.30" r="0.77" fill="#ff6cab" opacity="0.216"/><circle cx="751.82" cy="366.61" r="1.18" fill="#2ab7ff" opacity="0.072"/><circle cx="490.69" cy="688.80" r="1.32" fill="#2ab7ff" opacity="0.143"/><circle cx="357.60" cy="707.89" r="0.76" fill="#ff4ca0" opacity="0.160"/><circle cx="459.86" cy="475.19" r="0.98" fill="#ff4ca0" opacity="0.191"/><circle cx="1110.88" cy="653.18" r="0.81" fill="#2ab7ff" opacity="0.362"/><circle cx="528.20" cy="165.67" r="1.52" fill="#2ab7ff" opacity="0.374"/><circle cx="1014.58" cy="314.07" r="1.44" fill="#ff6cab" opacity="0.251"/><circle cx="685.32" cy="682.44" r="0.53" fill="#ff4ca0" opacity="0.270"/><circle cx="917.97" cy="545.73" r="0.62" fill="#ff4ca0" opacity="0.256"/><circle cx="126.44" cy="202.62" r="0.88" fill="#00e9ff" opacity="0.138"/><circle cx="1163.34" cy="42.06" r="1.00" fill="#ff4ca0" opacity="0.226"/><circle cx="333.39" cy="392.09" r="1.46" fill="#ff6cab" opacity="0.346"/><circle cx="696.26" cy="568.61" r="1.72" fill="#2ab7ff" opacity="0.324"/><circle cx="593.41" cy="181.84" r="1.03" fill="#2ab7ff" opacity="0.362"/><circle cx="575.13" cy="348.06" r="0.99" fill="#00e9ff" opacity="0.238"/><circle cx="1135.46" cy="344.24" r="0.98" fill="#2ab7ff" opacity="0.142"/><circle cx="218.35" cy="667.80" r="1.22" fill="#ff4ca0" opacity="0.192"/><circle cx="1168.10" cy="318.95" r="0.72" fill="#2ab7ff" opacity="0.096"/><circle cx="506.35" cy="48.00" r="1.29" fill="#ff4ca0" opacity="0.102"/><circle cx="254.20" cy="647.23" r="1.75" fill="#ff6cab" opacity="0.117"/><circle cx="575.08" cy="685.28" r="0.92" fill="#ff4ca0" opacity="0.133"/><circle cx="244.91" cy="232.91" r="1.44" fill="#ff4ca0" opacity="0.332"/><circle cx="620.76" cy="172.01" r="1.24" fill="#ff6cab" opacity="0.123"/><circle cx="139.76" cy="312.61" r="0.68" fill="#ff6cab" opacity="0.243"/><circle cx="1204.58" cy="391.47" r="0.84" fill="#ff6cab" opacity="0.330"/><circle cx="910.03" cy="554.17" r="0.71" fill="#2ab7ff" opacity="0.329"/><circle cx="65.62" cy="199.22" r="1.31" fill="#ff4ca0" opacity="0.267"/><circle cx="940.34" cy="522.56" r="0.75" fill="#2ab7ff" opacity="0.071"/><circle cx="645.93" cy="412.02" r="0.52" fill="#00e9ff" opacity="0.367"/><circle cx="1193.56" cy="441.65" r="1.73" fill="#2ab7ff" opacity="0.122"/><circle cx="1276.50" cy="569.14" r="1.47" fill="#00e9ff" opacity="0.200"/><circle cx="592.18" cy="475.65" r="1.11" fill="#00e9ff" opacity="0.207"/><circle cx="258.87" cy="202.01" r="0.79" fill="#00e9ff" opacity="0.138"/><circle cx="889.77" cy="47.05" r="1.55" fill="#ff4ca0" opacity="0.179"/><circle cx="486.14" cy="138.65" r="1.09" fill="#ff6cab" opacity="0.078"/><circle cx="146.47" cy="329.91" r="0.77" fill="#ff6cab" opacity="0.271"/><circle cx="1003.13" cy="713.35" r="1.69" fill="#ff6cab" opacity="0.349"/><circle cx="662.67" cy="521.21" r="0.90" fill="#ff6cab" opacity="0.299"/><circle cx="60.62" cy="184.80" r="1.75" fill="#00e9ff" opacity="0.302"/><circle cx="107.11" cy="263.67" r="1.29" fill="#ff6cab" opacity="0.390"/><circle cx="1025.45" cy="88.02" r="0.73" fill="#00e9ff" opacity="0.063"/><circle cx="1043.25" cy="139.48" r="0.72" fill="#00e9ff" opacity="0.174"/><circle cx="1140.39" cy="393.71" r="0.93" fill="#2ab7ff" opacity="0.135"/><circle cx="900.35" cy="296.61" r="1.68" fill="#2ab7ff" opacity="0.355"/><circle cx="107.57" cy="518.19" r="1.22" fill="#2ab7ff" opacity="0.118"/><circle cx="701.63" cy="214.10" r="0.52" fill="#ff6cab" opacity="0.346"/><circle cx="1117.74" cy="629.25" r="1.12" fill="#2ab7ff" opacity="0.094"/><circle cx="1095.95" cy="310.64" r="0.79" fill="#ff6cab" opacity="0.254"/><circle cx="193.30" cy="155.55" r="1.44" fill="#00e9ff" opacity="0.199"/><circle cx="39.64" cy="396.09" r="1.44" fill="#2ab7ff" opacity="0.341"/><circle cx="1258.56" cy="151.37" r="1.54" fill="#00e9ff" opacity="0.074"/><circle cx="461.06" cy="29.90" r="1.22" fill="#ff6cab" opacity="0.303"/><circle cx="211.92" cy="223.73" r="1.62" fill="#ff6cab" opacity="0.138"/><circle cx="999.95" cy="489.35" r="1.48" fill="#ff6cab" opacity="0.161"/><circle cx="841.66" cy="260.11" r="1.07" fill="#ff4ca0" opacity="0.279"/><circle cx="142.66" cy="210.39" r="1.51" fill="#ff4ca0" opacity="0.267"/><circle cx="279.90" cy="264.92" r="1.73" fill="#ff6cab" opacity="0.364"/><circle cx="816.71" cy="481.57" r="0.83" fill="#ff4ca0" opacity="0.192"/><circle cx="1213.78" cy="100.14" r="0.98" fill="#00e9ff" opacity="0.370"/><circle cx="464.95" cy="234.46" r="1.80" fill="#00e9ff" opacity="0.133"/><circle cx="1105.74" cy="337.56" r="1.55" fill="#ff6cab" opacity="0.079"/><circle cx="1028.38" cy="57.93" r="0.61" fill="#2ab7ff" opacity="0.186"/><circle cx="145.20" cy="0.84" r="1.29" fill="#ff4ca0" opacity="0.262"/><circle cx="481.43" cy="694.05" r="0.72" fill="#ff4ca0" opacity="0.137"/><circle cx="1268.31" cy="191.81" r="1.08" fill="#ff6cab" opacity="0.071"/><circle cx="587.21" cy="279.75" r="0.52" fill="#00e9ff" opacity="0.192"/><circle cx="1021.79" cy="92.51" r="1.46" fill="#2ab7ff" opacity="0.319"/><circle cx="1208.26" cy="447.20" r="0.89" fill="#00e9ff" opacity="0.229"/><circle cx="1103.26" cy="158.79" r="1.47" fill="#ff6cab" opacity="0.089"/><circle cx="1156.11" cy="654.73" r="1.56" fill="#ff4ca0" opacity="0.386"/><circle cx="200.11" cy="695.83" r="0.70" fill="#00e9ff" opacity="0.295"/><circle cx="173.23" cy="38.45" r="0.62" fill="#ff4ca0" opacity="0.098"/><circle cx="61.57" cy="7.81" r="0.93" fill="#2ab7ff" opacity="0.362"/><circle cx="761.19" cy="322.30" r="0.58" fill="#ff6cab" opacity="0.175"/><circle cx="215.31" cy="312.04" r="1.30" fill="#2ab7ff" opacity="0.153"/><circle cx="93.87" cy="295.77" r="0.70" fill="#2ab7ff" opacity="0.342"/><circle cx="424.54" cy="127.90" r="1.29" fill="#00e9ff" opacity="0.280"/><circle cx="667.27" cy="134.66" r="0.56" fill="#00e9ff" opacity="0.237"/><circle cx="1218.26" cy="210.34" r="1.36" fill="#00e9ff" opacity="0.384"/><circle cx="871.88" cy="39.10" r="1.37" fill="#00e9ff" opacity="0.276"/><circle cx="1277.34" cy="115.38" r="1.58" fill="#00e9ff" opacity="0.076"/><circle cx="980.11" cy="602.04" r="1.47" fill="#00e9ff" opacity="0.168"/><circle cx="465.51" cy="500.35" r="1.50" fill="#ff6cab" opacity="0.387"/><circle cx="1092.23" cy="445.89" r="0.50" fill="#2ab7ff" opacity="0.338"/><circle cx="906.53" cy="251.96" r="1.21" fill="#ff6cab" opacity="0.185"/><circle cx="1114.81" cy="50.49" r="1.77" fill="#00e9ff" opacity="0.131"/><circle cx="1170.91" cy="445.88" r="1.10" fill="#00e9ff" opacity="0.393"/><circle cx="980.09" cy="294.39" r="1.03" fill="#00e9ff" opacity="0.138"/><circle cx="451.10" cy="449.66" r="1.77" fill="#2ab7ff" opacity="0.323"/><circle cx="877.35" cy="499.57" r="0.77" fill="#ff6cab" opacity="0.147"/><circle cx="433.34" cy="283.74" r="1.26" fill="#2ab7ff" opacity="0.268"/><circle cx="264.10" cy="651.23" r="0.64" fill="#2ab7ff" opacity="0.099"/><circle cx="1010.33" cy="579.73" r="1.63" fill="#00e9ff" opacity="0.157"/><circle cx="868.83" cy="478.59" r="0.82" fill="#00e9ff" opacity="0.374"/><circle cx="999.96" cy="165.79" r="1.75" fill="#ff4ca0" opacity="0.103"/><circle cx="304.41" cy="218.13" r="1.68" fill="#00e9ff" opacity="0.144"/><circle cx="990.02" cy="467.69" r="1.06" fill="#ff4ca0" opacity="0.133"/><circle cx="452.52" cy="258.37" r="0.55" fill="#2ab7ff" opacity="0.078"/><circle cx="883.86" cy="519.67" r="1.77" fill="#ff4ca0" opacity="0.340"/><circle cx="833.85" cy="273.48" r="0.82" fill="#2ab7ff" opacity="0.294"/><circle cx="1153.97" cy="411.09" r="1.30" fill="#ff4ca0" opacity="0.275"/><circle cx="800.76" cy="656.51" r="1.68" fill="#00e9ff" opacity="0.315"/><circle cx="278.47" cy="31.06" r="1.56" fill="#00e9ff" opacity="0.261"/><circle cx="151.73" cy="194.67" r="0.54" fill="#ff4ca0" opacity="0.201"/><circle cx="579.41" cy="525.17" r="1.19" fill="#ff4ca0" opacity="0.261"/><circle cx="219.52" cy="687.59" r="1.12" fill="#2ab7ff" opacity="0.139"/><circle cx="70.04" cy="61.03" r="0.93" fill="#2ab7ff" opacity="0.301"/><circle cx="729.89" cy="159.11" r="1.06" fill="#ff4ca0" opacity="0.110"/><circle cx="685.90" cy="446.90" r="0.91" fill="#00e9ff" opacity="0.297"/><circle cx="546.99" cy="195.39" r="1.64" fill="#ff6cab" opacity="0.112"/><circle cx="372.28" cy="281.85" r="0.69" fill="#00e9ff" opacity="0.140"/><circle cx="954.38" cy="550.73" r="0.91" fill="#00e9ff" opacity="0.379"/><circle cx="509.23" cy="264.50" r="1.65" fill="#2ab7ff" opacity="0.301"/><circle cx="974.09" cy="28.15" r="1.37" fill="#2ab7ff" opacity="0.302"/><circle cx="523.32" cy="704.77" r="1.05" fill="#00e9ff" opacity="0.315"/><circle cx="445.74" cy="286.73" r="1.31" fill="#2ab7ff" opacity="0.079"/><circle cx="272.99" cy="658.06" r="1.21" fill="#2ab7ff" opacity="0.314"/><circle cx="286.85" cy="703.04" r="1.72" fill="#00e9ff" opacity="0.107"/><circle cx="237.70" cy="519.15" r="1.06" fill="#2ab7ff" opacity="0.064"/><circle cx="259.90" cy="625.50" r="1.35" fill="#00e9ff" opacity="0.108"/><circle cx="642.25" cy="682.94" r="0.71" fill="#00e9ff" opacity="0.243"/><circle cx="1147.47" cy="645.83" r="1.03" fill="#ff4ca0" opacity="0.256"/><circle cx="832.28" cy="637.18" r="0.75" fill="#00e9ff" opacity="0.345"/><circle cx="1040.86" cy="59.94" r="0.76" fill="#2ab7ff" opacity="0.354"/><circle cx="1067.60" cy="713.55" r="1.13" fill="#00e9ff" opacity="0.065"/><circle cx="94.67" cy="270.69" r="1.44" fill="#ff6cab" opacity="0.153"/></g>
  <text x="34" y="58" fill="#d7f1ff" opacity="0.78" font-size="27" font-family="Arial, sans-serif">Neon Pulse Spectrum</text>
</svg>
